# xmcd CD database file
#
# Track frame offsets:
#	150
#	24075
#	51750
#	81751
#	105151
#	145203
#	186229
#	225156
#	250807
#	280433
#
# Disc length: 4211 seconds
#
# Revision: 6
# Processed by: cddbd v1.5.2PL0 Copyright (c) Steve Scherf et al.
# Submitted via: CDex 1.70beta3
#
DISCID=7510710a
DTITLE=Richie Beirach Trio - Manhattan Reverie
DYEAR=2006
DGENRE=Jazz
TTITLE0=You Don't Know What Love Is
TTITLE1=On Green Dolphin Street
TTITLE2=If I Were A Bell
TTITLE3=Manhattan Reverie
TTITLE4=Etude (No.6 In E♭Minor, Op.10)
TTITLE5=Transition
TTITLE6=Stella By Starlight
TTITLE7=Veils
TTITLE8=Blood Count
TTITLE9=Footprints
EXTD=YEAR: 2006
EXTT0=
EXTT1=
EXTT2=
EXTT3=
EXTT4=
EXTT5=
EXTT6=
EXTT7=
EXTT8=
EXTT9=
PLAYORDER=
